<svg width="225" height="225" viewBox="0 0 225 225" fill="none" xmlns="http://www.w3.org/2000/svg">
<g clip-path="url(#clip0_32_369)">
<path d="M158.947 174.674C158.304 176.281 156.468 177.015 154.908 176.373L144.534 172.058C142.698 171.278 140.586 171.92 139.485 173.573C134.803 180.596 128.835 186.563 121.812 191.245C120.16 192.347 119.517 194.458 120.298 196.294L124.566 206.668C125.209 208.229 124.475 210.065 122.868 210.708L111.576 215.435C110.016 216.078 108.179 215.344 107.537 213.737L103.222 203.363C102.442 201.527 100.514 200.471 98.586 200.885C90.3236 202.537 81.9235 202.537 73.6153 200.885C71.6874 200.517 69.7136 201.527 68.9792 203.363L64.6644 213.737C64.0218 215.298 62.1857 216.078 60.625 215.435L49.3331 210.753C48.5528 210.432 47.9561 209.835 47.6348 209.055C47.3135 208.275 47.3135 207.449 47.6348 206.668L51.9496 196.294C52.7299 194.458 52.0873 192.347 50.4348 191.245C43.4118 186.563 37.4445 180.596 32.7625 173.573C31.6609 171.92 29.5494 171.278 27.7133 172.058L17.3395 176.373C15.7329 177.015 13.9427 176.281 13.3001 174.674L8.6181 163.383C7.97547 161.822 8.7099 159.986 10.3165 159.343L20.6903 155.028C22.5264 154.248 23.5821 152.32 23.169 150.392C21.5165 142.13 21.5165 133.73 23.169 125.422C23.5362 123.494 22.5264 121.52 20.6903 120.786L10.3165 116.471C9.53613 116.149 8.93941 115.553 8.6181 114.772C8.29678 113.992 8.29678 113.166 8.6181 112.386L13.3001 101.094C13.6214 100.313 14.2181 99.7166 14.9985 99.3952C15.7788 99.0739 16.605 99.0739 17.3854 99.3952L27.7592 103.71C29.5953 104.49 31.7068 103.848 32.8084 102.195C37.4904 95.1723 43.4577 89.205 50.4807 84.523C52.1332 83.4214 52.7758 81.3099 51.9955 79.4738L47.6807 69.0999C47.3594 68.3196 47.3594 67.4934 47.6807 66.713C48.002 65.9327 48.5987 65.336 49.379 65.0147L60.6709 60.3327C62.2316 59.69 64.0677 60.4245 64.7103 62.031L69.0251 72.4049C69.8972 74.5164 72.33 75.5262 74.4415 74.6541C76.553 73.7819 77.5629 71.3491 76.6907 69.2376L72.3759 58.8638C69.9431 53.0343 63.2873 50.2801 57.4578 52.667L46.1659 57.349C43.3659 58.4966 41.1626 60.6999 39.9691 63.5458C38.8216 66.3458 38.8216 69.4672 39.9691 72.3131L42.9987 79.6115C37.215 83.8804 32.1199 88.9755 27.8051 94.805L20.5067 91.7755C17.7067 90.628 14.5854 90.628 11.7394 91.7755C8.93941 92.9231 6.73611 95.1264 5.54266 97.9723L0.860662 109.264C-0.286887 112.064 -0.286887 115.186 0.860662 118.031C2.00821 120.831 4.21151 123.035 7.05743 124.228L14.3558 127.258C13.2542 134.418 13.2542 141.579 14.3558 148.74L7.05743 151.769C1.22788 154.202 -1.52624 160.858 0.860662 166.688L5.54266 177.842C7.92957 183.671 14.6313 186.425 20.4608 184.038L27.7592 181.009C32.0281 186.793 37.1232 191.888 42.9528 196.203L39.9232 203.501C38.7757 206.301 38.7757 209.422 39.9232 212.268C41.0708 215.068 43.2741 217.272 46.12 218.465L57.4119 223.147C63.2414 225.534 69.9431 222.78 72.33 216.95L75.3596 209.652C82.5203 210.753 89.681 210.753 96.8417 209.652L99.8712 216.95C101.707 221.357 105.976 224.019 110.429 224.019C111.898 224.019 113.366 223.744 114.789 223.147L126.081 218.465C131.911 216.032 134.665 209.376 132.278 203.547L129.248 196.248C135.032 191.98 140.127 186.884 144.442 181.055L151.74 184.084C157.57 186.517 164.272 183.717 166.659 177.888L171.341 166.596C172.488 163.796 172.488 160.674 171.341 157.828C170.193 155.028 167.99 152.825 165.144 151.632L154.77 147.317C152.658 146.445 150.226 147.455 149.354 149.566C148.481 151.678 149.491 154.11 151.603 154.983L161.977 159.297C162.757 159.619 163.354 160.215 163.675 160.996C163.996 161.776 163.996 162.602 163.675 163.383L158.947 174.674Z" fill="#A1A1A1"/>
<path d="M85.8712 109.494C88.1663 109.494 90.0023 107.612 90.0023 105.317C90.0023 103.022 88.1204 101.185 85.8253 101.185C85.8253 101.185 85.8253 101.185 85.7794 101.185C75.9563 101.277 66.7759 105.133 59.8906 112.11C53.0053 119.087 49.2414 128.359 49.3332 138.137C49.425 147.96 53.2808 157.14 60.2579 164.025C67.1891 170.865 76.3235 174.583 86.0089 174.583C86.1007 174.583 86.1925 174.583 86.2843 174.583C96.1073 174.491 105.288 170.635 112.173 163.658C119.058 156.681 122.822 147.409 122.73 137.632C122.73 135.336 120.848 133.5 118.553 133.5C118.553 133.5 118.553 133.5 118.507 133.5C116.212 133.5 114.376 135.382 114.376 137.677C114.422 145.251 111.53 152.412 106.206 157.828C100.881 163.245 93.7663 166.229 86.1925 166.274C86.1007 166.274 86.0548 166.274 85.963 166.274C78.4809 166.274 71.3661 163.383 66.0415 158.104C60.6251 152.779 57.6414 145.664 57.5955 138.091C57.5496 130.517 60.4415 123.356 65.7661 117.94C71.1825 112.569 78.2973 109.54 85.8712 109.494Z" fill="#A1A1A1"/>
<path d="M215.544 81.218C220.731 81.218 225 76.995 225 71.7622V62.9031C225 57.7162 220.777 53.4473 215.544 53.4473H210.724C209.485 48.8571 207.695 44.4506 205.308 40.3653L208.751 36.9226C212.423 33.2505 212.423 27.2373 208.751 23.5652L202.462 17.2766C200.672 15.4864 198.285 14.5225 195.806 14.5225C193.282 14.5225 190.895 15.4864 189.151 17.2766L185.708 20.7192C181.577 18.3323 177.216 16.4963 172.626 15.3028V10.4372C172.626 5.25027 168.403 0.981384 163.17 0.981384H154.265C149.078 0.981384 144.809 5.20437 144.809 10.4372V15.3028C140.219 16.5422 135.812 18.3323 131.727 20.7192L128.285 17.2766C126.494 15.4864 124.107 14.5225 121.629 14.5225C119.104 14.5225 116.717 15.4864 114.973 17.2766L108.684 23.5652C105.012 27.2373 105.012 33.2505 108.684 36.9226L112.127 40.3653C109.74 44.4965 107.904 48.8571 106.711 53.4473H101.845C96.658 53.4473 92.3892 57.6703 92.3892 62.9031V71.8081C92.3892 76.995 96.6121 81.2639 101.845 81.2639H106.711C107.95 85.8541 109.74 90.2607 112.127 94.346L108.684 97.7886C105.012 101.461 105.012 107.474 108.684 111.146L114.973 117.435C116.763 119.225 119.15 120.189 121.629 120.189C124.153 120.189 126.54 119.225 128.285 117.435L131.727 113.992C135.858 116.379 140.219 118.215 144.809 119.408V124.274C144.809 129.461 149.032 133.73 154.265 133.73H163.17C168.357 133.73 172.626 129.507 172.626 124.274V119.363C177.216 118.123 181.623 116.333 185.708 113.946L189.151 117.389C190.941 119.179 193.328 120.143 195.806 120.143C198.331 120.143 200.718 119.179 202.462 117.389L208.751 111.1C212.423 107.428 212.423 101.415 208.751 97.7427L205.308 94.3001C207.695 90.1689 209.531 85.8082 210.724 81.218H215.544ZM203.334 76.2606C202.187 82.1361 199.892 87.6443 196.541 92.6476C195.439 94.3001 195.669 96.5034 197.046 97.8804L202.829 103.664C203.288 104.123 203.288 104.812 202.829 105.271L196.541 111.559C196.265 111.835 195.944 111.881 195.76 111.881C195.531 111.881 195.255 111.835 194.98 111.559L189.196 105.776C187.773 104.353 185.57 104.169 183.964 105.271C178.96 108.622 173.452 110.871 167.577 112.064C165.649 112.431 164.226 114.176 164.226 116.149V124.32C164.226 124.917 163.721 125.422 163.124 125.422H154.219C153.622 125.422 153.117 124.917 153.117 124.32V116.149C153.117 114.176 151.695 112.477 149.767 112.064C143.891 110.917 138.383 108.622 133.38 105.271C132.691 104.812 131.865 104.582 131.085 104.582C130.029 104.582 128.927 104.995 128.147 105.821L122.363 111.605C122.088 111.881 121.766 111.926 121.583 111.926C121.353 111.926 121.078 111.881 120.802 111.605L114.514 105.317C114.055 104.858 114.055 104.169 114.514 103.71L120.298 97.9263C121.721 96.5034 121.904 94.3001 120.802 92.6935C117.452 87.6902 115.202 82.182 114.009 76.3065C113.642 74.3786 111.898 72.9557 109.924 72.9557H101.753C101.156 72.9557 100.652 72.4508 100.652 71.854V62.9031C100.652 62.3064 101.156 61.8015 101.753 61.8015H109.924C111.898 61.8015 113.596 60.3785 114.009 58.4507C115.157 52.5752 117.452 47.067 120.802 42.0636C121.904 40.4112 121.675 38.2079 120.298 36.8308L114.514 31.0472C114.239 30.7718 114.193 30.4505 114.193 30.2668C114.193 30.0373 114.239 29.7619 114.514 29.4865L120.757 23.152C121.032 22.8766 121.353 22.8307 121.537 22.8307C121.766 22.8307 122.042 22.8766 122.317 23.152L128.101 28.9357C129.524 30.3586 131.727 30.5423 133.334 29.4406C138.337 26.0898 143.845 23.8406 149.721 22.6471C151.649 22.2799 153.072 20.5356 153.072 18.5618V10.4372C153.072 9.84047 153.576 9.33554 154.173 9.33554H163.078C163.675 9.33554 164.18 9.84047 164.18 10.4372V18.6077C164.18 20.5815 165.603 22.2799 167.531 22.693C173.406 23.8406 178.914 26.1357 183.918 29.4865C185.57 30.5882 187.773 30.3586 189.151 28.9816L194.934 23.1979C195.21 22.9225 195.531 22.8766 195.715 22.8766C195.944 22.8766 196.219 22.9225 196.495 23.1979L202.783 29.4865C203.242 29.9455 203.242 30.6341 202.783 31.0931L197 36.8767C195.577 38.2997 195.393 40.503 196.495 42.1096C199.846 47.1129 202.095 52.6211 203.288 58.4966C203.656 60.4244 205.4 61.8474 207.374 61.8474H215.544C216.141 61.8474 216.646 62.3523 216.646 62.949V71.854C216.646 72.4508 216.141 72.9557 215.544 72.9557H207.374C205.4 72.9098 203.701 74.2868 203.334 76.2606Z" fill="#A1A1A1"/>
<path d="M158.672 40.6407C143.937 40.6407 132.003 52.6212 132.003 67.3098C132.003 82.0443 143.983 93.9788 158.672 93.9788C173.406 93.9788 185.341 81.9984 185.341 67.3098C185.341 52.6212 173.36 40.6407 158.672 40.6407ZM158.672 85.6706C148.527 85.6706 140.311 77.4541 140.311 67.3098C140.311 57.1655 148.527 48.949 158.672 48.949C168.816 48.949 177.032 57.1655 177.032 67.3098C177.032 77.4541 168.77 85.6706 158.672 85.6706Z" fill="#A1A1A1"/>
</g>
<defs>
<clipPath id="clip0_32_369">
<rect width="225" height="225" fill="white"/>
</clipPath>
</defs>
</svg>
