<svg width="277" height="218" viewBox="0 0 277 218" fill="none" xmlns="http://www.w3.org/2000/svg">
<g clip-path="url(#clip0_32_658)">
<path d="M42.8625 113.062C44.73 113.04 46.5075 113.58 47.9925 114.525L47.9475 112.005C47.9025 109.417 48.9375 107.077 50.625 105.367C52.3125 103.657 54.63 102.577 57.2175 102.532C57.2175 102.532 57.2175 102.532 57.24 102.532C59.1525 102.51 61.02 103.072 62.6175 104.152L62.595 102.127C62.55 99.54 63.585 97.2 65.2725 95.49C66.96 93.78 69.2775 92.7 71.865 92.655C74.4525 92.61 76.7925 93.645 78.5025 95.3325C80.2125 97.02 81.2925 99.3375 81.3375 101.925V103.972C82.8225 102.937 84.6225 102.307 86.5575 102.285C89.145 102.24 91.485 103.275 93.195 104.962C94.905 106.65 95.985 108.967 96.03 111.555L96.57 145.755C96.705 146.542 96.7725 147.307 96.7725 148.095L96.8175 150.705L97.0425 150.48C98.64 148.95 100.193 147.352 100.778 146.745C104.715 142.695 109.013 141.795 112.433 142.852C113.963 143.325 115.335 144.18 116.393 145.327C117.45 146.452 118.237 147.892 118.643 149.467C119.588 153.247 118.44 158.017 113.783 162.27C106.177 169.875 101.272 178.627 92.0925 185.4L92.385 187.942H92.5875L94.86 205.695H38.43L40.995 187.942H41.265L41.6475 185.197C38.7225 178.92 34.3575 173.272 34.2675 166.387C34.0425 148.342 33.84 140.602 33.615 122.557C33.57 119.97 34.605 117.63 36.2925 115.92C37.9575 114.187 40.275 113.107 42.8625 113.062ZM213.818 124.875C211.95 124.852 210.173 125.392 208.688 126.337L208.732 123.817C208.777 121.23 207.743 118.89 206.055 117.18C204.368 115.47 202.05 114.39 199.463 114.345C199.463 114.345 199.462 114.345 199.44 114.345C197.527 114.322 195.66 114.885 194.062 115.965L194.085 113.94C194.13 111.352 193.095 109.012 191.408 107.302C189.72 105.592 187.402 104.512 184.815 104.467C182.227 104.422 179.888 105.457 178.178 107.145C176.467 108.81 175.387 111.15 175.342 113.737V115.785C173.857 114.75 172.057 114.12 170.122 114.097C167.535 114.052 165.195 115.087 163.485 116.775C161.775 118.462 160.695 120.78 160.65 123.367L160.11 157.567C159.998 158.332 159.908 159.12 159.908 159.907L159.863 162.517L159.637 162.292C158.04 160.762 156.488 159.165 155.902 158.557C151.965 154.507 147.667 153.607 144.247 154.642C142.717 155.115 141.345 155.97 140.287 157.117C139.23 158.242 138.442 159.682 138.037 161.257C137.092 165.037 138.24 169.807 142.897 174.06C150.503 181.665 155.408 190.417 164.588 197.19L164.295 199.732H164.092L161.82 217.485H218.182L215.64 199.732H215.37L214.988 196.965C217.913 190.687 222.278 185.04 222.368 178.155C222.592 160.11 222.818 152.37 223.02 134.325C223.065 131.737 222.03 129.397 220.342 127.687C218.723 125.977 216.405 124.897 213.818 124.875ZM213.885 27.54C214.065 24.0525 214.605 20.5875 215.122 17.055C216.247 9.62998 217.395 12.825 214.875 5.75998C214.065 3.53248 215.235 1.05748 217.463 0.269982C219.69 -0.540018 222.165 0.629982 222.952 2.85748C226.237 12.015 224.933 9.87748 223.65 18.3375C223.178 21.465 222.705 24.5475 222.525 27.54C224.753 27.54 226.778 28.44 228.24 29.9025C228.353 30.015 228.465 30.1275 228.555 30.2625C229.838 31.7025 230.602 33.57 230.602 35.6175V36.045H256.095C261.698 36.045 266.805 38.34 270.495 42.03C274.185 45.72 276.48 50.8275 276.48 56.43V149.467C276.48 155.07 274.185 160.177 270.495 163.867C266.805 167.557 261.698 169.852 256.095 169.852H229.905C229.95 166.77 229.995 163.957 230.04 161.257H256.095C259.335 161.257 262.26 159.93 264.397 157.792C266.535 155.655 267.863 152.73 267.863 149.49V56.4525C267.863 53.2125 266.535 50.2875 264.397 48.15C262.26 46.0125 259.335 44.685 256.095 44.685H226.305C223.92 44.685 221.985 42.75 221.985 40.365V36.1575H211.882V40.365C211.882 42.75 209.947 44.685 207.562 44.685H20.385C17.145 44.685 14.22 46.0125 12.0825 48.15C9.945 50.2875 8.6175 53.2125 8.6175 56.4525V149.49C8.6175 152.73 9.945 155.655 12.0825 157.792C14.22 159.93 17.145 161.257 20.385 161.257H26.7975L26.865 166.432C26.8875 167.625 26.9775 168.75 27.135 169.852H20.385C14.7825 169.852 9.675 167.557 5.985 163.867C2.295 160.2 0 155.092 0 149.49V56.4525C0 50.85 2.295 45.7425 5.985 42.0525C9.675 38.3625 14.7825 36.0675 20.385 36.0675H203.243V35.64C203.243 33.435 204.142 31.41 205.605 29.9475C207.067 28.485 209.093 27.585 211.298 27.585H213.885V27.54ZM131.423 169.852H116.753C117.45 169.087 118.192 168.322 118.957 167.557L118.935 167.535C121.073 165.532 122.692 163.417 123.862 161.257H130.568C130.162 163.98 130.41 166.905 131.423 169.852ZM27.585 57.9375H45.0225C47.4075 57.9375 49.3425 59.8725 49.3425 62.2575V76.9725C49.3425 79.3575 47.4075 81.2925 45.0225 81.2925H27.585C25.2 81.2925 23.265 79.3575 23.265 76.9725V62.2575C23.265 59.8725 25.2 57.9375 27.585 57.9375ZM62.1225 57.9375H79.56C81.945 57.9375 83.88 59.8725 83.88 62.2575V76.9725C83.88 79.3575 81.945 81.2925 79.56 81.2925H62.1225C59.7375 81.2925 57.8025 79.3575 57.8025 76.9725V62.2575C57.8025 59.8725 59.7375 57.9375 62.1225 57.9375ZM96.6825 57.9375H114.12C116.505 57.9375 118.44 59.8725 118.44 62.2575V76.9725C118.44 79.3575 116.505 81.2925 114.12 81.2925H96.6825C94.2975 81.2925 92.3625 79.3575 92.3625 76.9725V62.2575C92.3625 59.8725 94.2975 57.9375 96.6825 57.9375ZM131.243 57.9375H148.68C151.065 57.9375 153 59.8725 153 62.2575V76.9725C153 79.3575 151.065 81.2925 148.68 81.2925H131.243C128.857 81.2925 126.923 79.3575 126.923 76.9725V62.2575C126.923 59.8725 128.835 57.9375 131.243 57.9375ZM165.803 57.9375H183.24C185.625 57.9375 187.56 59.8725 187.56 62.2575V76.9725C187.56 79.3575 185.625 81.2925 183.24 81.2925H165.803C163.418 81.2925 161.482 79.3575 161.482 76.9725V62.2575C161.482 59.8725 163.418 57.9375 165.803 57.9375ZM200.34 57.9375H217.777C220.163 57.9375 222.098 59.8725 222.098 62.2575V76.9725C222.098 79.3575 220.163 81.2925 217.777 81.2925H200.34C197.955 81.2925 196.02 79.3575 196.02 76.9725V62.2575C196.043 59.8725 197.978 57.9375 200.34 57.9375ZM234.9 57.9375H252.338C254.723 57.9375 256.658 59.8725 256.658 62.2575V76.9725C256.658 79.3575 254.723 81.2925 252.338 81.2925H234.9C232.515 81.2925 230.58 79.3575 230.58 76.9725V62.2575C230.58 59.8725 232.515 57.9375 234.9 57.9375ZM234.9 89.7075H252.338C254.723 89.7075 256.658 91.665 256.658 94.0725V140.602C256.658 143.01 254.723 144.967 252.338 144.967H234.9C232.515 144.967 230.58 143.01 230.58 140.602V94.0725C230.58 91.665 232.515 89.7075 234.9 89.7075ZM27.585 90.09H45.0225C47.4075 90.09 49.3425 92.025 49.3425 94.41V97.2C47.8575 98.01 46.5075 99.0225 45.3375 100.237C43.8075 101.812 42.57 103.68 41.7375 105.75C37.53 106.087 33.7725 107.955 31.005 110.79C30.2175 111.6 29.4975 112.5 28.8675 113.467H27.585C25.2 113.467 23.265 111.532 23.265 109.147V94.4325C23.265 92.025 25.2 90.09 27.585 90.09ZM96.6825 90.09H114.12C116.505 90.09 118.44 92.025 118.44 94.41V109.125C118.44 111.51 116.505 113.445 114.12 113.445H103.455L103.433 111.555C103.41 109.26 102.915 107.1 102.082 105.142C101.205 103.095 99.9225 101.25 98.37 99.72C96.795 98.1675 94.9275 96.93 92.8575 96.0975C92.7 96.03 92.5425 95.9625 92.3625 95.9175V94.3875C92.3625 92.025 94.2975 90.09 96.6825 90.09ZM131.243 90.09H148.68C151.065 90.09 153 92.025 153 94.41V109.125C153 111.51 151.065 113.445 148.68 113.445H131.243C128.857 113.445 126.923 111.51 126.923 109.125V94.41C126.923 92.025 128.835 90.09 131.243 90.09ZM165.803 90.09H183.24C185.625 90.09 187.56 92.025 187.56 94.41V97.3575C186.705 97.2225 185.827 97.1325 184.928 97.1325C182.633 97.11 180.473 97.5375 178.493 98.325C176.423 99.1575 174.555 100.395 172.958 101.947C171.562 103.32 170.393 104.94 169.537 106.762C167.512 106.83 165.6 107.235 163.822 107.955C163.012 108.292 162.225 108.675 161.482 109.125V94.455C161.482 92.025 163.418 90.09 165.803 90.09ZM200.34 90.09H217.777C220.163 90.09 222.098 92.025 222.098 94.41V109.125C222.098 111.51 220.163 113.445 217.777 113.445H212.602C212.22 112.95 211.793 112.477 211.365 112.027C209.835 110.475 207.99 109.192 205.943 108.315C204.143 107.55 202.162 107.077 200.07 106.987C199.26 105.187 198.135 103.567 196.762 102.172C196.515 101.925 196.29 101.7 196.02 101.475V94.4325C196.043 92.025 197.978 90.09 200.34 90.09ZM26.55 145.125C24.66 144.652 23.265 142.965 23.265 140.917V126.225C23.265 124.312 24.5025 122.692 26.2125 122.13C26.2125 122.332 26.2125 122.512 26.2125 122.715C26.325 131.895 26.4375 138.33 26.55 144.787V145.125ZM103.59 121.905H148.702C151.065 121.905 152.977 123.84 152.977 126.225V140.94C152.977 143.325 151.065 145.26 148.702 145.26H124.965C124.74 144.72 124.493 144.18 124.2 143.685C123.57 142.515 122.783 141.412 121.905 140.422L121.747 140.242C120.757 139.162 119.632 138.24 118.395 137.475C117.225 136.732 115.897 136.147 114.48 135.697H114.457C111.217 134.707 107.618 134.685 103.95 135.9L103.793 135.945L103.59 121.905ZM168.93 199.755L169.402 196.177C161.213 189.247 149.175 174.375 146.092 171.202C146.025 171.135 145.957 171.067 145.89 171C143.527 168.862 141.39 165.6 142.223 162.27C142.447 161.392 142.875 160.605 143.438 159.997C144 159.39 144.697 158.94 145.53 158.692C147.555 158.085 150.232 158.76 152.91 161.505C153.54 162.135 155.16 163.8 156.735 165.33C158.243 166.77 159.772 168.165 160.785 168.727C161.122 168.952 161.528 169.11 161.955 169.11L163.643 168.322L164.25 159.952C164.452 144.27 164.745 139.14 164.925 123.412C164.948 122.017 165.533 120.757 166.477 119.835C167.423 118.912 168.705 118.372 170.1 118.395C171.495 118.417 172.778 119.002 173.678 119.925C174.577 120.847 175.162 122.152 175.14 123.547L174.78 154.08L179.19 154.125L179.685 113.782C179.708 112.387 180.292 111.127 181.215 110.205C182.16 109.282 183.443 108.72 184.838 108.742C186.232 108.765 187.515 109.35 188.415 110.295C189.337 111.24 189.9 112.522 189.878 113.917L189.405 154.237L193.905 154.282L194.265 123.66C194.287 122.265 194.872 120.982 195.818 120.082C196.74 119.16 198.022 118.62 199.417 118.642C200.812 118.665 202.095 119.25 202.995 120.195C203.917 121.14 204.48 122.422 204.458 123.817L204.075 154.44L208.327 154.485L208.575 134.235C208.597 132.84 209.182 131.557 210.105 130.657C211.027 129.757 212.332 129.172 213.727 129.195C215.122 129.217 216.405 129.802 217.305 130.747C218.228 131.692 218.768 132.975 218.745 134.37L218.497 154.62C218.363 165.915 218.227 166.905 218.092 178.2C218.048 182.925 213.098 191.317 210.96 195.885C210.78 196.245 210.735 196.65 210.78 197.032L211.185 199.822H168.93V199.755ZM87.75 187.965L87.2775 184.387C95.4675 177.457 107.505 162.585 110.565 159.412C110.632 159.345 110.7 159.277 110.768 159.21C113.13 157.072 115.268 153.81 114.435 150.48C114.21 149.602 113.783 148.815 113.22 148.207C112.658 147.577 111.96 147.15 111.128 146.902C109.103 146.272 106.425 146.97 103.747 149.715C103.14 150.345 101.497 152.01 99.9225 153.54C98.415 154.98 96.885 156.375 95.8725 156.96C95.535 157.185 95.13 157.32 94.7025 157.32L93.015 156.532L92.4075 148.162C92.205 132.48 91.9125 127.372 91.7325 111.622C91.71 110.227 91.125 108.945 90.18 108.045C89.235 107.122 87.9525 106.582 86.5575 106.605C85.1625 106.627 83.88 107.212 82.98 108.135C82.0575 109.08 81.495 110.362 81.5175 111.757L81.9 142.267L77.5125 142.312L77.0175 101.97C76.995 100.575 76.41 99.2925 75.4875 98.3925C74.5425 97.47 73.26 96.9075 71.865 96.93C70.47 96.9525 69.1875 97.5375 68.2875 98.4825C67.365 99.4275 66.8025 100.71 66.825 102.105L67.2975 142.425L62.7975 142.47L62.415 111.825C62.3925 110.43 61.8075 109.17 60.8625 108.247C59.94 107.325 58.6575 106.785 57.2625 106.807C55.8675 106.83 54.585 107.415 53.685 108.36C52.7625 109.305 52.2 110.587 52.2225 111.982L52.605 142.605L48.3525 142.65L48.105 122.4C48.0825 121.005 47.4975 119.722 46.575 118.822C45.63 117.9 44.3475 117.337 42.9525 117.36C41.5575 117.382 40.275 117.967 39.375 118.912C38.4525 119.857 37.9125 121.14 37.935 122.535L38.1825 142.785C38.3175 154.08 38.4525 155.07 38.5875 166.365C38.6325 171.09 43.5825 179.482 45.72 184.05C45.9 184.432 45.945 184.837 45.9 185.197L45.495 187.987H87.75V187.965Z" fill="#A1A1A1"/>
</g>
<defs>
<clipPath id="clip0_32_658">
<rect width="276.48" height="217.508" fill="white"/>
</clipPath>
</defs>
</svg>
