<?xml version="1.0" standalone="no"?>
<!DOCTYPE svg PUBLIC "-//W3C//DTD SVG 20010904//EN"
 "http://www.w3.org/TR/2001/REC-SVG-20010904/DTD/svg10.dtd">
<svg version="1.0" xmlns="http://www.w3.org/2000/svg"
 width="700.000000pt" height="700.000000pt" viewBox="0 0 700.000000 700.000000"
 preserveAspectRatio="xMidYMid meet">
<metadata>
Created by potrace 1.14, written by Peter Selinger 2001-2017
</metadata>
<g transform="translate(0.000000,700.000000) scale(0.100000,-0.100000)"
fill="#000000" stroke="none">
<path d="M165 6706 c3 -72 7 -149 10 -171 13 -104 18 -142 20 -165 9 -77 17
-136 21 -141 2 -4 6 -24 9 -45 10 -68 82 -336 118 -439 141 -406 354 -783 627
-1105 86 -102 306 -320 414 -409 532 -443 1209 -720 1899 -776 27 -2 50 -5 52
-7 2 -2 -711 -3 -1585 -3 l-1589 0 4 -120 c6 -174 26 -360 55 -510 6 -27 12
-59 14 -70 3 -16 27 -117 40 -170 70 -284 229 -649 409 -937 411 -658 1056
-1164 1802 -1413 106 -35 343 -98 415 -110 19 -3 42 -8 50 -10 14 -4 27 -6
130 -20 95 -13 118 -15 200 -22 47 -3 128 -7 180 -7 l95 -1 0 1557 c0 857 3
1558 6 1558 3 0 9 -33 13 -72 7 -83 9 -99 37 -258 74 -431 266 -907 512 -1275
46 -68 169 -235 189 -256 7 -8 31 -37 53 -64 59 -75 308 -322 405 -402 357
-295 796 -531 1205 -648 50 -14 104 -30 120 -35 17 -5 41 -11 55 -14 14 -2 48
-10 75 -16 59 -14 63 -15 180 -34 83 -13 121 -19 230 -31 22 -2 102 -7 178
-10 l137 -5 0 3393 0 3394 -3394 0 -3395 0 4 -131z m3398 -71 c4 -8 3 -16 -1
-19 -4 -3 -9 4 -9 15 -2 23 3 25 10 4z m4 -82 c2 -25 8 -83 14 -127 6 -45 12
-92 14 -106 4 -31 11 -68 25 -140 6 -30 13 -66 16 -80 3 -14 21 -83 40 -155
232 -846 785 -1574 1536 -2021 426 -253 923 -417 1393 -460 39 -3 85 -9 103
-13 18 -3 -681 -6 -1555 -5 -873 1 -1590 2 -1593 3 -4 1 -5 3140 -1 3149 4 8
7 -4 8 -45z m3 -3363 c0 -5 -5 -10 -11 -10 -5 0 -7 5 -4 10 3 6 8 10 11 10 2
0 4 -4 4 -10z"/>
</g>
</svg>
